<svg width="450" height="350" viewBox="0 0 450 350" fill="none" xmlns="http://www.w3.org/2000/svg">
<rect width="450" height="350" rx="20" fill="#F8F9FA"/>
<g id="quiz-main">
    <rect x="150" y="70" width="260" height="240" rx="12" fill="#FFFFFF" stroke="#DEE2E6" stroke-width="2"/>
    <rect x="170" y="90" width="220" height="25" rx="5" fill="#0D6EFD"/>
    <path d="M195 102.5L200 97.5L205 102.5" stroke="white" stroke-width="3" stroke-linecap="round" stroke-linejoin="round"/>
    <path d="M225 102.5L230 97.5L235 102.5" stroke="white" stroke-width="3" stroke-linecap="round" stroke-linejoin="round"/>
    <path d="M255 102.5L260 97.5L265 102.5" stroke="white" stroke-width="3" stroke-linecap="round" stroke-linejoin="round"/>
    <path d="M285 102.5L290 97.5L295 102.5" stroke="white" stroke-width="3" stroke-linecap="round" stroke-linejoin="round"/>
    <text x="275" y="87" font-family="-apple-system, BlinkMacSystemFont, Segoe UI, Roboto, Helvetica, Arial, sans-serif" font-size="18" font-weight="bold" fill="#FFFFFF" text-anchor="middle">QUIZ</text>
    <g id="options">
        <circle cx="185" cy="150" r="15" fill="#F8D7DA"/>
        <text x="185" y="156" font-family="sans-serif" font-size="16" font-weight="bold" fill="#842029" text-anchor="middle">A</text>
        <rect x="220" y="142" width="160" height="16" rx="4" fill="#E9ECEF"/>
        <circle cx="185" cy="200" r="15" fill="#F8D7DA"/>
        <text x="185" y="206" font-family="sans-serif" font-size="16" font-weight="bold" fill="#842029" text-anchor="middle">B</text>
        <rect x="220" y="192" width="160" height="16" rx="4" fill="#E9ECEF"/>
        <circle cx="185" cy="250" r="15" fill="#D1E7DD"/>
        <text x="185" y="256" font-family="sans-serif" font-size="16" font-weight="bold" fill="#0F5132" text-anchor="middle">C</text>
        <rect x="220" y="242" width="160" height="16" rx="4" fill="#E9ECEF"/>
        <circle cx="365" cy="285" r="20" fill="#28A745"/>
        <path d="M358 285L363 290L372 281" stroke="white" stroke-width="3" stroke-linecap="round" stroke-linejoin="round"/>
    </g>
</g>
<g id="checklist">
    <rect x="40" y="90" width="120" height="150" rx="12" fill="#FFFFFF" stroke="#DEE2E6" stroke-width="2"/>
    <path d="M55 110L65 120L80 105" stroke="#28A745" stroke-width="3" stroke-linecap="round" stroke-linejoin="round"/>
    <rect x="90" y="110" width="50" height="8" rx="2" fill="#E9ECEF"/>
    <path d="M55 150L65 160L80 145" stroke="#28A745" stroke-width="3" stroke-linecap="round" stroke-linejoin="round"/>
    <rect x="90" y="150" width="50" height="8" rx="2" fill="#E9ECEF"/>
    <circle cx="70" cy="205" r="25" fill="#0D6EFD"/>
    <text x="70" y="212" font-family="sans-serif" font-size="28" font-weight="bold" fill="white" text-anchor="middle">?</text>
</g>
</svg>
