<svg xmlns="http://www.w3.org/2000/svg" width="679" height="452" viewBox="0 0 679 452" version="1.1"><path d="M 64.118 10.183 C 63.413 11.312, 63.210 12.610, 63.668 13.068 C 64.126 13.525, 65.020 12.798, 65.656 11.451 C 67.093 8.403, 65.863 7.389, 64.118 10.183 M 243.229 55.188 C 243.834 57.001, 245.667 57.257, 245.667 55.528 C 245.667 54.688, 245.029 54, 244.250 54 C 243.471 54, 243.011 54.534, 243.229 55.188 M 88 73 C 88 73.550, 88.927 74, 90.059 74 C 91.191 74, 91.840 73.550, 91.500 73 C 91.160 72.450, 90.234 72, 89.441 72 C 88.648 72, 88 72.450, 88 73 M 415.951 121.724 C 415.677 124.047, 415.833 125.567, 416.299 125.101 C 416.765 124.635, 416.989 122.735, 416.798 120.877 C 416.459 117.583, 416.438 117.604, 415.951 121.724 M 294.529 122.614 C 293.688 123.455, 293 124.524, 293 124.990 C 293 125.455, 292.727 126.548, 292.393 127.418 C 292.059 128.288, 292.254 129, 292.827 129 C 293.399 129, 294.010 127.780, 294.184 126.290 C 294.410 124.351, 295.212 123.412, 297 122.994 C 299.065 122.510, 299.200 122.293, 297.779 121.746 C 296.781 121.363, 295.415 121.727, 294.529 122.614 M 178.515 126.250 C 178.151 128.588, 177.631 131.287, 177.360 132.250 C 177.088 133.213, 177.346 134, 177.933 134 C 178.520 134, 179 132.760, 179 131.243 C 179 129.727, 179.419 127.027, 179.930 125.243 C 180.442 123.460, 180.481 122, 180.018 122 C 179.555 122, 178.878 123.912, 178.515 126.250 M 147 134.667 C 147 137.233, 147.163 139.146, 147.362 138.917 C 148.239 137.909, 148.720 130, 147.905 130 C 147.407 130, 147 132.100, 147 134.667 M 235.639 131.694 C 234.513 132.820, 234.954 134, 236.500 134 C 237.325 134, 238 133.577, 238 133.059 C 238 131.798, 236.438 130.895, 235.639 131.694 M 416.250 156.031 C 414.328 156.804, 413.991 157.706, 413.936 162.218 C 413.763 176.480, 414.220 186.560, 415.086 187.603 C 416.565 189.386, 422.088 190.171, 423.706 188.829 C 425.257 187.541, 452 186.237, 452 187.449 C 452 188.717, 443.408 205.394, 440.787 209.213 C 439.386 211.255, 436.614 216.987, 434.627 221.951 C 432.641 226.914, 428.969 235.368, 426.467 240.738 C 419.079 256.597, 418.906 257.017, 414.870 268.830 C 410.146 282.660, 409.967 285.596, 413.750 287.258 C 417.355 288.842, 490.006 288.603, 493.006 286.997 C 494.833 286.019, 495 284.894, 495 273.536 C 495 259.658, 494.549 258.569, 488.322 257.401 C 486.334 257.028, 477.799 256.955, 469.354 257.239 C 460.909 257.522, 454 257.662, 454 257.550 C 454 256.446, 460.126 243.029, 465.208 233 C 468.692 226.125, 472.603 217.800, 473.900 214.500 C 478.290 203.325, 481.231 196.530, 486.017 186.500 C 488.641 181, 492.013 172.743, 493.509 168.151 C 495.857 160.947, 496.036 159.607, 494.813 158.385 C 493.670 157.241, 487.041 156.871, 460.448 156.465 C 442.327 156.188, 425.475 155.773, 423 155.544 C 420.525 155.314, 417.488 155.534, 416.250 156.031 M 172 157.357 C 157.436 160.772, 150.504 164.469, 140.313 174.255 C 136.841 177.589, 134 179.833, 134 179.241 C 134 177.507, 129.997 168.670, 129.456 169.210 C 129.185 169.482, 129.838 172.515, 130.908 175.952 L 132.853 182.200 129.550 186.850 C 121.353 198.389, 118.562 208.102, 118.586 225 C 118.601 235.942, 118.950 238.559, 121.387 246 C 125.390 258.222, 128.435 263.206, 136.008 269.937 C 147.312 279.983, 159.078 285.713, 175 288.926 C 184.509 290.844, 199.727 288.778, 208.143 284.426 C 209.817 283.561, 211.289 282.998, 211.415 283.176 C 211.541 283.354, 212.824 286.045, 214.265 289.155 C 215.705 292.266, 217.366 295.108, 217.954 295.472 C 219.505 296.430, 233.810 294.205, 238.500 292.275 C 240.700 291.370, 243.490 289.756, 244.699 288.689 L 246.898 286.747 243.525 280.050 C 241.670 276.367, 238.589 271.305, 236.678 268.801 L 233.202 264.248 237.616 256.874 C 242.528 248.668, 247.591 233.665, 248.541 224.500 C 250.037 210.079, 245.761 195.034, 236.751 183.014 C 226.427 169.242, 223.954 166.990, 214 162.297 C 208.775 159.834, 203.600 157.612, 202.500 157.360 C 197.260 156.159, 177.117 156.157, 172 157.357 M 262 156.956 C 260.211 158.122, 260.160 167.971, 261.816 192 C 262.404 200.525, 263.186 214.475, 263.555 223 C 263.924 231.525, 264.410 239.400, 264.637 240.500 C 264.863 241.600, 265.468 245.650, 265.983 249.500 C 267.768 262.865, 271.361 270.359, 279.722 278.157 C 287.555 285.462, 291.885 287.235, 303.251 287.791 C 311.634 288.201, 313.878 287.950, 319.251 286.005 C 334.643 280.434, 341.726 274.990, 345.057 266.172 C 346.709 261.798, 347.513 256.037, 348.569 241 C 349.322 230.275, 350.218 217.900, 350.558 213.500 C 351.389 202.769, 351.309 168.166, 350.443 163.547 C 349.934 160.833, 349.056 159.581, 347.125 158.817 C 344.038 157.596, 320.003 157.597, 318.782 158.818 C 318.322 159.278, 318.791 167.495, 319.825 177.077 C 321.968 196.946, 322.591 209.431, 322.280 226.274 C 321.976 242.745, 318.843 252.127, 312.025 256.982 C 308.490 259.500, 307.511 259.500, 303.977 256.984 C 301.523 255.236, 300.789 253.433, 298.470 243.460 C 296.276 234.029, 296.023 231.677, 297.066 230.420 C 298.108 229.165, 298.086 228.943, 296.945 229.194 C 293.868 229.870, 290.914 199.334, 291.683 174.789 C 292.253 156.555, 292.458 156.884, 280.700 157.156 C 275.640 157.274, 269.700 157.057, 267.500 156.674 C 265.280 156.288, 262.833 156.414, 262 156.956 M 232.638 158.500 C 232.288 159.414, 232.637 160, 233.531 160 C 234.339 160, 235 159.325, 235 158.500 C 235 157.675, 234.598 157, 234.107 157 C 233.616 157, 232.955 157.675, 232.638 158.500 M 385.500 159.206 C 382.200 159.635, 376.125 159.929, 372 159.859 C 367.875 159.789, 363.901 159.792, 363.169 159.866 C 362.069 159.977, 361.955 170.884, 362.510 222.750 C 362.934 262.444, 363.551 285.949, 364.189 286.722 C 364.901 287.584, 368.180 287.835, 375.349 287.576 C 389.395 287.068, 392.551 286.322, 395.506 282.811 L 398 279.847 397.971 249.173 C 397.955 232.303, 397.504 212.650, 396.968 205.500 C 395.923 191.546, 395.651 172.969, 396.435 169.167 C 397.205 165.437, 395.940 161.185, 393.633 159.751 C 392.072 158.781, 389.890 158.635, 385.500 159.206 M 176.718 164.530 C 166.922 170.384, 140 190.879, 140 192.484 C 140 194.952, 141.185 194.331, 149.544 187.478 C 158.447 180.180, 161.413 177.897, 174.923 167.943 C 185.152 160.407, 185.854 159.071, 176.718 164.530 M 220.627 162.530 C 220.188 163.675, 220.495 164.051, 221.682 163.823 C 223.458 163.481, 223.800 161.767, 222.198 161.233 C 221.675 161.058, 220.968 161.642, 220.627 162.530 M 189.359 164.392 C 187.081 165.695, 181.886 169.224, 177.816 172.234 C 173.745 175.245, 169.414 178.243, 168.191 178.898 C 166.969 179.552, 163.819 181.980, 161.191 184.294 C 158.564 186.607, 154.858 189.763, 152.957 191.306 C 149.726 193.928, 149.794 193.913, 154 191.075 C 156.475 189.405, 162.550 185.129, 167.500 181.574 C 172.450 178.018, 179.875 172.978, 184 170.375 C 193.659 164.279, 196.629 161.997, 194.885 162.012 C 194.123 162.019, 191.636 163.090, 189.359 164.392 M 271.709 166.656 C 269.074 168.634, 267.141 170.474, 267.413 170.747 C 267.685 171.019, 269.841 169.757, 272.204 167.943 C 278.158 163.371, 278.560 162.995, 277.450 163.030 C 276.928 163.047, 274.344 164.679, 271.709 166.656 M 330.200 167.425 C 327.624 169.859, 325.769 172.102, 326.077 172.410 C 326.385 172.718, 329.081 170.734, 332.068 168.001 C 335.056 165.267, 336.911 163.024, 336.192 163.015 C 335.472 163.007, 332.776 164.991, 330.200 167.425 M 422.105 164.085 C 420.787 164.612, 419.960 165.294, 420.266 165.600 C 420.573 165.906, 422.100 165.464, 423.662 164.618 C 426.803 162.916, 425.846 162.588, 422.105 164.085 M 428.571 167.275 C 424.760 169.599, 421.455 172.077, 421.227 172.782 C 420.999 173.488, 423.892 171.950, 427.656 169.366 C 438.908 161.643, 439.308 160.727, 428.571 167.275 M 446.759 171.753 C 437.047 178.420, 434.525 180.580, 436.152 180.838 C 437.389 181.034, 440.016 179.889, 442.394 178.118 C 444.652 176.436, 449.731 172.804, 453.681 170.046 C 457.631 167.288, 461.145 164.575, 461.490 164.016 C 463.196 161.256, 458.315 163.819, 446.759 171.753 M 478.672 165.633 C 474.303 167.825, 457.065 181, 458.568 181 C 458.913 181, 462.640 178.572, 466.851 175.605 C 471.061 172.638, 476.969 168.588, 479.980 166.605 C 486.231 162.488, 485.711 162.102, 478.672 165.633 M 190.500 172 L 178.500 179.997 182.932 179.998 C 187.122 180, 187.809 179.565, 195.560 172 C 200.067 167.600, 203.473 164.001, 203.128 164.002 C 202.783 164.002, 197.100 167.602, 190.500 172 M 445.530 164.732 C 439.774 166.192, 422 178.194, 422 180.620 C 422 181.379, 422.429 182, 422.953 182 C 423.786 182, 445.912 167.116, 448.450 164.849 C 449.481 163.928, 448.806 163.901, 445.530 164.732 M 282.821 166.262 C 282.095 166.956, 280.263 168.071, 278.752 168.739 C 274.021 170.833, 267 177.995, 267 180.728 C 267 183.034, 267.388 182.845, 272.750 177.930 C 275.913 175.032, 279.914 171.820, 281.643 170.795 C 283.371 169.769, 285.016 168.045, 285.299 166.965 C 285.885 164.724, 284.765 164.406, 282.821 166.262 M 339.410 167.875 C 334.238 171.696, 326.465 179.798, 327.234 180.567 C 328.103 181.436, 334.031 176.859, 333.386 175.816 C 333.092 175.340, 333.283 175.074, 333.811 175.225 C 335.267 175.642, 342.882 169.752, 343.575 167.675 C 344.549 164.748, 343.578 164.795, 339.410 167.875 M 200.931 173.953 C 196.514 178.085, 194.154 180.924, 195.113 180.953 C 196 180.979, 199.681 177.850, 203.292 174 C 206.904 170.150, 209.522 167, 209.111 167 C 208.699 167, 205.018 170.129, 200.931 173.953 M 381.855 174.780 C 373.985 182.839, 370 187.666, 370 189.138 C 370 189.615, 371.661 188.092, 373.691 185.753 C 375.720 183.414, 380.308 178.475, 383.886 174.778 C 387.463 171.081, 390.166 167.832, 389.892 167.558 C 389.618 167.284, 386.001 170.534, 381.855 174.780 M 458.455 172.261 C 447.888 179.671, 445.359 182, 447.875 182 C 448.357 182, 452.656 178.850, 457.430 175 C 467.138 167.170, 467.645 165.816, 458.455 172.261 M 476.926 174.557 C 471.742 178.154, 465.371 182.537, 462.768 184.298 C 454.390 189.967, 457.701 189.205, 466.716 183.389 C 471.509 180.297, 477.777 176.616, 480.644 175.210 C 483.708 173.708, 486.077 171.815, 486.389 170.620 C 486.681 169.502, 486.793 168.459, 486.636 168.303 C 486.480 168.146, 482.110 170.961, 476.926 174.557 M 576 169.470 C 576 170.278, 576.824 172.415, 577.831 174.220 C 578.839 176.024, 580.498 179.750, 581.518 182.500 C 582.539 185.250, 584.173 188.552, 585.151 189.839 L 586.927 192.177 586.426 188.839 C 586.151 187.002, 585.791 184.600, 585.627 183.500 C 585.464 182.400, 584.838 180.600, 584.236 179.500 C 583.635 178.400, 582.323 175.364, 581.321 172.754 C 580.110 169.598, 578.914 168.006, 577.750 168.004 C 576.788 168.002, 576 168.661, 576 169.470 M 206.500 178 C 203.234 181.300, 201.013 184, 201.563 184 C 202.113 184, 205.234 181.300, 208.500 178 C 211.766 174.700, 213.987 172, 213.437 172 C 212.887 172, 209.766 174.700, 206.500 178 M 341.500 175.580 C 338.422 177.804, 328 188.288, 328 189.159 C 328 190.146, 339.940 181.829, 342.356 179.159 C 343.357 178.053, 344.023 176.471, 343.838 175.642 C 343.542 174.320, 343.253 174.313, 341.500 175.580 M 276.892 180.584 C 268.221 188.080, 268.209 189.325, 276.868 183.027 C 284.493 177.481, 285.517 176.438, 284.159 175.598 C 283.678 175.301, 280.408 177.544, 276.892 180.584 M 146 179.637 C 140.556 183.913, 139.882 184.600, 142.500 183.205 C 144.678 182.044, 151.812 176.075, 151 176.092 C 150.725 176.098, 148.475 177.693, 146 179.637 M 217.322 183.272 C 213.681 186.806, 211.107 189.941, 211.601 190.239 C 212.096 190.536, 215.594 187.965, 219.376 184.526 C 223.754 180.546, 225.832 178.014, 225.096 177.560 C 224.410 177.135, 221.252 179.456, 217.322 183.272 M 386 179.500 C 384.712 180.871, 383.884 182.217, 384.159 182.492 C 384.434 182.767, 385.712 181.871, 387 180.500 C 388.288 179.129, 389.116 177.783, 388.841 177.508 C 388.566 177.233, 387.288 178.129, 386 179.500 M 473.452 184.871 C 466.901 188.442, 456 195.733, 456 196.542 C 456 197.354, 480.382 185.002, 481.141 183.806 C 483.564 179.986, 482.019 180.200, 473.452 184.871 M 298.937 184.980 C 297.047 186.596, 295.950 187.935, 296.500 187.954 C 297.932 188.005, 303.611 183.291, 302.937 182.610 C 302.628 182.297, 300.828 183.364, 298.937 184.980 M 220.665 189.931 C 217.290 193.193, 214.766 196.100, 215.057 196.391 C 215.657 196.990, 218.688 194.351, 224.453 188.211 C 230.354 181.925, 227.702 183.129, 220.665 189.931 M 279.445 186.754 C 272.762 191.280, 268 195.424, 268 196.717 C 268 198.121, 279.323 190.439, 282.924 186.591 C 286.074 183.225, 284.552 183.296, 279.445 186.754 M 335.765 189.978 C 332.116 193.322, 329.033 197.045, 328.769 198.429 C 328.338 200.683, 328.791 200.486, 333.898 196.201 C 339.763 191.279, 342.020 188.756, 343.218 185.782 C 344.458 182.704, 342.502 183.805, 335.765 189.978 M 179.226 186.220 C 167.776 187.893, 155.700 197.004, 151.871 206.857 C 150.088 211.446, 149.699 214.406, 149.787 222.699 C 149.945 237.544, 150.847 240.193, 159.223 250.388 C 162.985 254.967, 172.367 258.979, 181.006 259.704 C 184.853 260.026, 188 259.990, 188 259.623 C 188 259.256, 186.186 255.348, 183.969 250.938 C 181.435 245.897, 179.521 243.178, 178.814 243.615 C 178.161 244.019, 177.968 243.861, 178.353 243.238 C 179.240 241.802, 177.346 237.012, 174.826 234.321 C 173.704 233.123, 172.974 231.578, 173.204 230.888 C 173.691 229.426, 190.477 225.683, 196.873 225.610 C 200.374 225.570, 201.630 226.053, 203.165 228.030 C 214.253 242.308, 214.281 242.337, 215.574 240.568 C 217.896 237.393, 219.135 226.607, 217.997 219.481 C 214.127 195.256, 200.047 183.177, 179.226 186.220 M 384.486 189.761 C 381.728 192.367, 377.853 196.525, 375.875 199 C 367.897 208.983, 369.235 208.943, 379.436 198.893 C 386.155 192.273, 390.070 187.673, 389.851 186.654 C 389.584 185.414, 388.296 186.160, 384.486 189.761 M 229.333 190.479 C 225.177 193.390, 218.958 201.727, 219.632 203.484 C 220.153 204.841, 221.713 203.749, 227.590 197.910 C 231.611 193.916, 234.672 190.278, 234.391 189.824 C 233.622 188.580, 231.687 188.830, 229.333 190.479 M 283.663 191.758 C 283.228 192.450, 279.526 195.490, 275.436 198.515 C 271.346 201.540, 268 204.699, 268 205.535 C 268 206.550, 270.243 205.387, 274.750 202.036 C 278.462 199.275, 282.340 196.436, 283.366 195.728 C 284.443 194.984, 285.067 193.607, 284.842 192.470 C 284.563 191.057, 284.230 190.856, 283.663 191.758 M 133.351 195.779 C 130.313 198.403, 127.433 202.766, 128.219 203.552 C 129.054 204.388, 138.500 196.788, 138.500 195.281 C 138.500 192.688, 136.729 192.859, 133.351 195.779 M 464.381 198.528 C 454.594 203.563, 450 206.888, 450 208.936 C 450 209.329, 455.288 207.041, 461.750 203.850 C 472.223 198.680, 477.268 194.934, 475.771 193.438 C 475.492 193.158, 470.366 195.449, 464.381 198.528 M 336.059 200.677 C 326.759 209.389, 326.750 212.828, 336.049 204.547 C 342.864 198.478, 344.365 196.596, 343.784 194.851 C 343.587 194.260, 340.111 196.882, 336.059 200.677 M 230.225 202.274 C 225.600 206.930, 223 210.348, 223 211.774 C 223 215.749, 224.006 214.917, 232.312 204.077 C 237.230 197.658, 238.816 195, 237.725 195 C 237.574 195, 234.199 198.273, 230.225 202.274 M 383.404 201.567 C 370.783 214.538, 373.204 213.475, 389.363 198.950 C 389.837 198.524, 390.018 197.573, 389.766 196.838 C 389.472 195.980, 387.188 197.678, 383.404 201.567 M 588.778 199.556 C 588.033 200.300, 592.237 211.998, 593.250 211.999 C 594.378 212, 594.128 208.955, 592.653 204.718 C 591.230 200.633, 589.717 198.617, 588.778 199.556 M 139.055 202.433 C 138.401 203.222, 135.220 205.580, 131.987 207.673 C 126.957 210.930, 124.118 214.451, 125.448 215.781 C 125.651 215.984, 129.346 212.750, 133.659 208.595 C 137.971 204.439, 141.218 201.030, 140.872 201.020 C 140.527 201.009, 139.710 201.645, 139.055 202.433 M 284.064 202.500 C 283.997 203.913, 283.733 204.127, 283.162 203.228 C 282.568 202.293, 280.612 203.277, 275.750 206.957 C 269.005 212.063, 267.397 213.730, 268.323 214.656 C 268.867 215.201, 280.115 207.883, 283.358 204.874 C 284.380 203.925, 284.978 202.553, 284.687 201.825 C 284.369 201.028, 284.120 201.297, 284.064 202.500 M 144.422 205.449 C 143.280 206.577, 138.217 211.280, 133.172 215.900 C 123.753 224.527, 120.276 230.106, 128.227 223.834 C 137.380 216.615, 144.485 209.689, 144.183 208.280 C 144.009 207.466, 144.295 207.064, 144.819 207.388 C 145.344 207.712, 146.031 206.990, 146.347 205.782 C 147.077 202.989, 146.939 202.965, 144.422 205.449 M 236.056 207.631 C 234.162 210.144, 230.675 214.252, 228.306 216.759 C 225 220.259, 224 222.094, 224 224.659 C 224 226.497, 224.173 228, 224.385 228 C 224.597 228, 226.610 224.963, 228.858 221.250 C 231.107 217.537, 234.758 212.314, 236.973 209.641 C 239.188 206.969, 241 204.381, 241 203.891 C 241 202.002, 239.368 203.237, 236.056 207.631 M 336.250 211.024 C 331.549 215.538, 329 218.760, 329 220.189 C 329 222.234, 329.252 222.148, 332.500 219 C 334.425 217.134, 336 215.262, 336 214.840 C 336 214.418, 337.863 212.334, 340.141 210.209 C 342.419 208.085, 344.106 205.833, 343.891 205.205 C 343.676 204.577, 340.238 207.196, 336.250 211.024 M 383.494 210.002 C 375.409 217.403, 369.802 224.632, 370.188 227.157 C 370.445 228.836, 372.237 227.519, 380.327 219.704 C 388.833 211.487, 390.109 209.828, 389.827 207.358 L 389.500 204.505 383.494 210.002 M 460 210.023 C 454.775 212.743, 449.986 214.976, 449.357 214.984 C 447.913 215.004, 446.780 217.835, 447.651 219.245 C 448.039 219.872, 447.835 220.016, 447.155 219.595 C 446.520 219.203, 446 219.359, 446 219.941 C 446 221.514, 447.879 221.231, 451.382 219.131 C 453.097 218.102, 457.355 216.190, 460.844 214.881 C 466.131 212.897, 467.509 211.875, 469.114 208.750 C 470.174 206.688, 470.694 205.017, 470.270 205.039 C 469.847 205.060, 465.225 207.303, 460 210.023 M 257.168 211.051 C 257.753 212.729, 258.426 213.907, 258.664 213.669 C 259.367 212.966, 257.860 208, 256.944 208 C 256.482 208, 256.583 209.373, 257.168 211.051 M 239.615 214.045 C 238.167 215.767, 235.774 219.273, 234.299 221.838 C 232.823 224.402, 229.438 229.764, 226.775 233.753 C 224.113 237.742, 221.643 241.792, 221.287 242.753 C 220.396 245.157, 207.164 268.220, 202.670 275.202 C 200.652 278.338, 199 281.179, 199 281.516 C 199 281.853, 200.810 281.111, 203.023 279.867 C 205.912 278.243, 207.724 276.182, 209.450 272.553 C 214.281 262.402, 219 251.942, 219 251.384 C 219 250.821, 223.790 243.343, 233.017 229.500 C 241.973 216.064, 246.151 206.278, 239.615 214.045 M 279.991 212.944 C 275.224 215.466, 267.323 222.620, 268.254 223.571 C 268.669 223.995, 270.019 223.414, 271.254 222.281 C 272.489 221.148, 276.087 218.582, 279.250 216.580 C 282.413 214.577, 285 212.502, 285 211.969 C 285 210.618, 284.033 210.806, 279.991 212.944 M 335.662 222.823 C 330.126 228.401, 327.924 231.315, 328.162 232.744 C 328.447 234.450, 329.725 233.623, 336.324 227.463 C 342.779 221.438, 344.092 219.702, 343.824 217.543 C 343.518 215.069, 343.069 215.360, 335.662 222.823 M 379.750 226.836 C 369.101 237.579, 366.522 241.542, 375.803 232.902 C 378.994 229.931, 383.550 225.925, 385.926 224 C 388.699 221.753, 390.112 219.873, 389.873 218.750 C 389.594 217.440, 387.042 219.479, 379.750 226.836 M 595.817 218.516 C 595.533 218.800, 595.898 221.334, 596.628 224.148 C 597.358 226.961, 597.714 229.654, 597.419 230.132 C 597.123 230.609, 597.584 231, 598.441 231 C 600.479 231, 600.501 226.443, 598.487 221.622 C 596.931 217.899, 596.702 217.632, 595.817 218.516 M 138.383 221.833 C 136.670 223.300, 132.958 226.437, 130.134 228.805 C 127.310 231.173, 125 233.588, 125 234.172 C 125 235.168, 127.324 233.278, 137.826 223.746 C 142.713 219.309, 143.173 217.732, 138.383 221.833 M 280.869 221.255 C 275.371 224.655, 270 229.743, 270 231.553 C 270 233.599, 270.191 233.505, 278.184 227.500 C 281.845 224.750, 285.059 221.713, 285.326 220.750 C 285.961 218.467, 285.249 218.547, 280.869 221.255 M 453.683 223.403 C 443.695 227.810, 441.114 229.447, 442.292 230.626 C 443.382 231.715, 460.151 225.131, 462.147 222.830 C 463.719 221.018, 464.608 218.914, 463.750 219.035 C 463.613 219.055, 459.082 221.020, 453.683 223.403 M 237.500 230.802 C 231.071 240.218, 225.603 249.318, 222.959 255 C 221.808 257.475, 220.017 261.300, 218.980 263.500 C 217.943 265.700, 216.387 269.300, 215.522 271.500 L 213.949 275.500 216.436 272.500 C 217.805 270.850, 219.682 267.925, 220.609 266 C 221.535 264.075, 223.998 258.895, 226.081 254.488 C 229.299 247.681, 235.022 238.386, 241.578 229.316 C 242.446 228.115, 243.009 226.310, 242.828 225.305 C 242.596 224.013, 241.039 225.619, 237.500 230.802 M 133.846 233.850 C 129.636 237.507, 126.360 240.674, 126.566 240.887 C 126.979 241.313, 140.694 230.304, 141.623 228.802 C 143.199 226.250, 140.798 227.809, 133.846 233.850 M 385.495 230.231 C 377.977 236.364, 370 245.349, 370 247.684 C 370 248.732, 373.473 246.009, 379.250 240.431 C 389.126 230.896, 390.326 229.478, 389.816 227.948 C 389.637 227.411, 387.693 228.438, 385.495 230.231 M 277.887 233.996 L 271.500 239.992 278.750 235.362 C 282.738 232.816, 286 230.118, 286 229.366 C 286 226.962, 284.417 227.865, 277.887 233.996 M 337.295 232.761 C 332.297 237.311, 327 244.241, 327 246.228 C 327 247.338, 342.737 231.099, 343.453 229.250 C 344.342 226.956, 342.546 227.980, 337.295 232.761 M 451.500 233.406 C 443.755 235.889, 437.526 238.859, 438.345 239.678 C 439.143 240.476, 456.801 233.944, 458.110 232.368 C 458.734 231.615, 459.077 231.037, 458.872 231.081 C 458.668 231.126, 455.350 232.172, 451.500 233.406 M 193.250 238.980 C 189.003 244.766, 187.337 249.625, 190.500 247 C 191.325 246.315, 192 245.223, 192 244.573 C 192 243.923, 193.373 241.227, 195.051 238.580 C 196.729 235.934, 197.967 233.639, 197.801 233.480 C 197.636 233.321, 195.588 235.796, 193.250 238.980 M 135 240.944 C 130.875 244.725, 127.864 248.186, 128.309 248.635 C 128.754 249.084, 132.527 245.974, 136.694 241.725 C 140.861 237.476, 143.873 234.015, 143.386 234.034 C 142.898 234.053, 139.125 237.163, 135 240.944 M 186.857 238.250 C 185.240 240.556, 185.091 241.088, 186.344 240.082 C 188.126 238.651, 190.468 235, 189.603 235 C 189.346 235, 188.111 236.463, 186.857 238.250 M 199.588 240.259 C 198.165 242.688, 196.990 245.086, 196.978 245.588 C 196.966 246.090, 196.076 247.625, 195 249 C 193.924 250.375, 193.034 251.925, 193.022 252.444 C 193.010 252.964, 194.125 251.864, 195.500 250 C 196.875 248.136, 198 246.240, 198 245.786 C 198 245.332, 199.157 243.127, 200.572 240.886 C 201.987 238.645, 202.927 236.593, 202.660 236.327 C 202.394 236.061, 201.012 237.830, 199.588 240.259 M 279.720 240.678 C 275.598 243.548, 273 246.061, 273 247.178 C 273 248.180, 273.249 249, 273.553 249 C 274.667 249, 288 237.886, 288 236.957 C 288 235.266, 286.577 235.905, 279.720 240.678 M 379.415 246.599 C 374.512 251.878, 370.335 256.647, 370.134 257.196 C 369.594 258.670, 372.949 256.644, 376.556 253.318 C 378.237 251.768, 381.950 248.406, 384.806 245.847 C 387.935 243.045, 390 240.360, 390 239.097 C 390 237.944, 389.624 237, 389.165 237 C 388.705 237, 384.318 241.319, 379.415 246.599 M 329.275 251.407 C 322.551 258.058, 312.651 267.765, 307.275 272.979 C 298.650 281.342, 297.774 282.499, 299.832 282.809 C 302.357 283.190, 304.309 281.496, 328.676 257.773 C 337.794 248.898, 342.054 244.030, 342.506 241.973 C 342.865 240.338, 342.786 239.070, 342.329 239.157 C 341.873 239.243, 335.999 244.755, 329.275 251.407 M 602 240.482 C 602 243.390, 606.142 258.376, 607.257 259.500 C 608.631 260.886, 607.328 251.057, 605.353 245.141 C 603.584 239.839, 602 237.639, 602 240.482 M 138.156 247.432 C 134.513 250.970, 131.774 254.107, 132.071 254.404 C 132.367 254.701, 135.723 251.806, 139.528 247.972 C 148.225 239.207, 147.087 238.760, 138.156 247.432 M 204.372 244.314 C 200.294 250.564, 196.868 257.105, 197.182 258.045 C 197.357 258.570, 199.750 255.993, 202.500 252.319 C 209.132 243.456, 209.169 243.385, 207.712 242.176 C 206.774 241.397, 205.918 241.945, 204.372 244.314 M 444.807 243.432 C 437.378 245.585, 434 247.346, 434 249.067 C 434 249.995, 450.988 244.351, 452.433 242.943 C 454.301 241.123, 452.345 241.248, 444.807 243.432 M 281.057 249.608 C 273.374 256.721, 273.166 258.603, 280.746 252.429 C 283.907 249.855, 287.057 247.532, 287.746 247.267 C 289.200 246.709, 289.457 244, 288.057 244 C 287.538 244, 284.388 246.523, 281.057 249.608 M 143.920 250.750 C 142.003 252.813, 139.549 255.617, 138.467 256.983 C 134.868 261.525, 139.678 257.162, 144.124 251.852 C 148.949 246.090, 148.833 245.465, 143.920 250.750 M 387.300 249.259 C 386.860 249.952, 383.012 253.607, 378.750 257.382 C 374.488 261.157, 371 264.975, 371 265.867 C 371 266.943, 372.268 266.145, 374.769 263.495 C 376.841 261.298, 380.779 257.700, 383.519 255.500 C 388.687 251.350, 389.959 250.022, 389.985 248.750 C 390.009 247.540, 388.170 247.889, 387.300 249.259 M 208.581 252.250 C 201.742 261.123, 189.292 278.220, 187.693 280.934 L 185.887 284 188.393 284 C 191.334 284, 193.421 281.441, 201.036 268.500 C 203.949 263.550, 206.915 258.809, 207.628 257.963 C 209.109 256.207, 212.267 249, 211.556 249 C 211.297 249, 209.958 250.463, 208.581 252.250 M 439.069 253.306 C 433.882 255.110, 429.449 257.154, 429.217 257.849 C 428.915 258.755, 429.884 258.639, 432.648 257.436 C 434.767 256.514, 439.336 254.740, 442.803 253.493 C 448.834 251.325, 451.381 249.985, 449.417 250.013 C 448.913 250.021, 444.256 251.502, 439.069 253.306 M 144.512 258.750 L 138.669 265.500 145.335 259.029 C 149.001 255.470, 152 252.432, 152 252.279 C 152 250.856, 149.403 253.100, 144.512 258.750 M 285.766 255.097 L 282.500 258.193 285.720 256.050 C 287.491 254.871, 289.205 253.478, 289.529 252.953 C 290.688 251.077, 288.976 252.052, 285.766 255.097 M 325.037 268.047 C 305.927 286.484, 309.407 286.801, 330.984 268.589 C 338.598 262.163, 341 259.008, 341 255.435 C 341 254.646, 340.663 254.021, 340.250 254.047 C 339.837 254.072, 332.992 260.372, 325.037 268.047 M 287.658 259.933 C 281.892 264.517, 279.298 267.632, 280.362 268.696 C 281.003 269.337, 287.273 264.478, 291.360 260.173 C 296.136 255.143, 293.868 254.996, 287.658 259.933 M 149.593 262.062 C 143.154 268.086, 143 268.342, 144.703 270.224 C 146.433 272.136, 146.502 272.119, 148.981 269.191 C 156.618 260.167, 158.201 257.801, 157.243 256.843 C 156.575 256.175, 154.030 257.911, 149.593 262.062 M 381.773 263.250 C 370.812 273.857, 370.064 276.940, 380.842 267.090 C 385.879 262.486, 390 258.108, 390 257.360 C 390 256.612, 389.835 256, 389.632 256 C 389.430 256, 385.894 259.262, 381.773 263.250 M 435.137 261.455 C 430.537 263.309, 426.286 265.314, 425.690 265.910 C 424.709 266.891, 428.366 265.623, 439.298 261.192 C 441.387 260.345, 443.326 259.281, 443.607 258.826 C 444.284 257.732, 444.675 257.611, 435.137 261.455 M 159.340 264.265 C 155.429 268.451, 151.647 273.980, 152.269 274.602 C 152.537 274.870, 155.116 272.124, 158 268.500 C 163.565 261.507, 164.408 258.842, 159.340 264.265 M 290.007 267.700 C 285.339 272.022, 283.228 274.628, 283.874 275.274 C 284.519 275.919, 287.463 273.897, 292.429 269.400 C 296.593 265.629, 300 262.469, 300 262.378 C 300 262.288, 299.353 261.966, 298.562 261.662 C 297.689 261.327, 294.330 263.697, 290.007 267.700 M 470.500 266.478 C 467.200 268.373, 461.350 272.846, 457.500 276.416 L 450.500 282.907 454 282.930 C 457.109 282.949, 458.618 281.837, 467.500 272.983 C 473 267.501, 477.275 263.018, 477 263.023 C 476.725 263.027, 473.800 264.582, 470.500 266.478 M 165.181 266.963 C 163.693 268.592, 161.618 271.405, 160.571 273.213 C 158.671 276.492, 158.671 276.496, 160.667 274.746 C 163.084 272.626, 169.376 264, 168.506 264 C 168.166 264, 166.670 265.333, 165.181 266.963 M 187.649 268.750 C 181.993 274.738, 177 281.014, 177 282.138 C 177 282.612, 177.597 283, 178.326 283 C 180.469 283, 183.004 279.780, 192.300 265.250 C 193.941 262.685, 191.998 264.147, 187.649 268.750 M 481.946 266.882 C 479.501 268.466, 474.575 272.798, 471 276.507 L 464.500 283.251 468 282.602 C 470.609 282.118, 473.601 279.864, 479.750 273.749 C 484.288 269.236, 488 265.197, 488 264.772 C 488 263.409, 486.494 263.934, 481.946 266.882 M 296.750 271.618 C 292.488 275.245, 289 278.566, 289 278.999 C 289 279.432, 289.715 280.060, 290.589 280.396 C 291.692 280.819, 294.555 278.555, 299.938 273.003 C 309.421 263.221, 307.566 262.415, 296.750 271.618 M 380.814 273.549 C 376.036 278.175, 372.572 282.235, 373.115 282.571 C 374.356 283.338, 390.404 267.687, 389.883 266.217 C 389.672 265.623, 385.591 268.922, 380.814 273.549 M 441.484 270.781 C 435.993 273.960, 429.708 277.785, 427.518 279.281 L 423.536 282 426.956 282 C 429.476 282, 431.838 280.853, 435.938 277.637 C 438.997 275.238, 444.162 271.413, 447.416 269.137 C 455.780 263.287, 453.184 264.007, 441.484 270.781 M 178.386 269.750 C 174.058 273.751, 168.642 281, 169.981 281 C 171.183 281, 174.551 277.300, 179.237 270.831 C 182.534 266.280, 182.367 266.069, 178.386 269.750 M 225 267.786 C 225 268.283, 223.200 271.475, 221 274.879 C 217.069 280.961, 215.339 286.234, 218.347 282.964 C 221.002 280.078, 226.910 268.062, 225.962 267.476 C 225.433 267.149, 225 267.289, 225 267.786 M 450.809 272.620 C 446.239 275.710, 441.385 279.310, 440.023 280.620 L 437.545 283 439.878 283 C 441.161 283, 443.626 281.810, 445.356 280.356 C 451.635 275.076, 460.326 267, 459.730 267 C 459.394 267, 455.380 269.529, 450.809 272.620 M 432 268.697 C 428.863 269.824, 421.153 275.158, 420.608 276.578 C 420.036 278.069, 425.323 275.391, 432.982 270.310 C 436.171 268.195, 435.673 267.377, 432 268.697 M 609.389 270.500 C 609.643 271.600, 610.144 273.957, 610.502 275.739 C 610.861 277.520, 611.562 279.230, 612.062 279.538 C 613.315 280.312, 612.047 274.088, 610.323 271 C 609.277 269.127, 609.043 269.001, 609.389 270.500 M 228.744 275.268 C 226.680 278.418, 221 288.873, 221 289.523 C 221 289.785, 221.654 290, 222.454 290 C 223.283 290, 225.458 286.735, 227.509 282.414 C 231.120 274.804, 231.862 270.509, 228.744 275.268 M 483.646 277.388 C 481.567 279.924, 480.258 282, 480.737 282 C 482.257 282, 488.241 275.224, 487.825 273.974 C 487.605 273.315, 485.724 274.851, 483.646 277.388 M 386.015 278.485 C 382.062 282.563, 382.257 283.354, 386.750 281.464 C 389.209 280.429, 390 279.476, 390 277.548 C 390 276.147, 389.863 275, 389.696 275 C 389.529 275, 387.872 276.568, 386.015 278.485 M 232.151 284.625 C 230.283 288.471, 230.179 289.145, 231.534 288.625 C 232.430 288.281, 233.340 288, 233.556 288 C 234.472 288, 237.029 281.856, 236.482 280.971 C 235.369 279.170, 234.408 279.981, 232.151 284.625 M 210.245 293.250 C 210.779 294.871, 215 295.504, 215 293.963 C 215 293.315, 214.325 293.045, 213.500 293.362 C 212.675 293.678, 212 293.501, 212 292.969 C 212 292.436, 211.512 292, 210.917 292 C 210.321 292, 210.019 292.563, 210.245 293.250 M 290.086 300 C 290.116 300.825, 290.527 302.400, 291 303.500 L 291.859 305.500 291.914 303.500 C 291.945 302.400, 291.533 300.825, 291 300 C 290.138 298.667, 290.037 298.667, 290.086 300 M 244.796 301.091 C 244.460 301.966, 244.569 303.303, 245.038 304.062 C 246.253 306.028, 246.785 304.936, 246.041 302 C 245.555 300.082, 245.265 299.871, 244.796 301.091 M 569.362 315.299 C 565.921 319.257, 565.567 320.330, 568.293 318.544 C 570.650 316.999, 572.507 314.174, 571.698 313.364 C 571.505 313.172, 570.454 314.043, 569.362 315.299 M 550.996 322.439 C 552.642 324.229, 553.377 326.034, 553.153 327.741 C 552.803 330.415, 550.856 333, 549.194 333 C 548.672 333, 547.685 333.675, 547 334.500 C 546.215 335.446, 546.148 336, 546.819 336 C 547.403 336, 548.179 335.519, 548.542 334.932 C 548.905 334.344, 549.802 334.094, 550.536 334.375 C 551.320 334.676, 552.706 333.468, 553.901 331.444 C 555.018 329.550, 556.562 328, 557.331 328 C 558.956 328, 564.331 323.998, 563.638 323.305 C 563.381 323.048, 562.120 323.428, 560.836 324.150 C 557.400 326.080, 555 326.010, 555 323.980 C 555 323.019, 554.212 321.955, 553.250 321.616 C 552.288 321.276, 550.825 320.712, 550 320.362 C 549.175 320.012, 549.623 320.947, 550.996 322.439 M 279.989 337.705 C 279.720 341.667, 279.861 344.547, 280.302 344.103 C 280.742 343.660, 280.962 340.418, 280.790 336.898 L 280.477 330.500 279.989 337.705 M 303.106 339 C 303.059 341.031, 305.724 352.057, 306.433 352.766 C 306.745 353.078, 306.987 352.246, 306.972 350.917 C 306.941 348.248, 303.161 336.598, 303.106 339 M 534.892 340.370 C 535.636 341.266, 537.450 342, 538.922 342 C 540.395 342, 542.101 342.501, 542.713 343.113 C 543.324 343.724, 544.427 344.022, 545.163 343.774 C 546.864 343.200, 541.752 340.511, 537.020 339.490 C 533.877 338.813, 533.671 338.898, 534.892 340.370 M 544.500 340 C 547.263 341.187, 549 341.187, 549 340 C 549 339.450, 547.538 339.032, 545.750 339.070 C 543.026 339.129, 542.824 339.280, 544.500 340 M 468.258 347.226 C 466.545 349.352, 459.841 363.175, 460.301 363.634 C 460.537 363.870, 462.009 361.461, 463.573 358.282 C 465.137 355.102, 467.272 351.237, 468.317 349.692 C 470.227 346.872, 470.178 344.843, 468.258 347.226 M 307.076 355.500 C 307.084 356.600, 307.714 358.850, 308.475 360.500 L 309.861 363.500 309.293 360 C 308.581 355.614, 307.054 352.513, 307.076 355.500 M 577.625 354.798 C 577.354 355.237, 577.545 356.249, 578.051 357.048 C 578.556 357.846, 578.976 359.786, 578.985 361.357 C 578.996 363.489, 578.619 364.068, 577.500 363.638 C 576.675 363.322, 576.007 363.161, 576.015 363.281 C 576.023 363.402, 576.663 365.300, 577.436 367.500 C 578.468 370.437, 579.014 371.062, 579.489 369.853 C 579.844 368.947, 580.010 367.597, 579.858 366.853 C 579.705 366.109, 580.097 364.569, 580.728 363.431 C 582.067 361.018, 581.895 358.784, 580.215 356.759 C 579.556 355.965, 579.313 355.020, 579.675 354.658 C 580.037 354.296, 579.835 354, 579.226 354 C 578.616 354, 577.896 354.359, 577.625 354.798 M 278 367.667 C 278 373.220, 278.481 373.074, 279.373 367.250 C 279.775 364.621, 279.638 363, 279.012 363 C 278.455 363, 278 365.100, 278 367.667 M 652.168 370.949 C 651.583 372.627, 651.478 374, 651.935 374 C 652.728 374, 654.147 368.829, 653.527 368.199 C 653.364 368.033, 652.753 369.271, 652.168 370.949 M 551.258 372.228 C 553.816 374.199, 555 374.444, 555 373 C 555 372.450, 554.523 372, 553.941 372 C 553.359 372, 553.131 371.598, 553.434 371.106 C 553.738 370.615, 552.868 370.277, 551.501 370.356 L 549.015 370.500 551.258 372.228 M 581.571 378.571 C 580.512 379.346, 579.871 380.204, 580.146 380.479 C 580.421 380.754, 581.512 380.346, 582.571 379.571 C 583.630 378.797, 584.272 377.939, 583.997 377.664 C 583.722 377.389, 582.630 377.797, 581.571 378.571 M 582.451 383.373 C 583.007 386.837, 583.500 387.427, 585.040 386.475 C 585.732 386.048, 585.826 385.493, 585.271 385.125 C 584.753 384.781, 583.803 383.600, 583.159 382.500 C 582.105 380.698, 582.035 380.785, 582.451 383.373 M 570.629 385.791 C 570.360 386.226, 571.684 386.402, 573.570 386.182 C 575.457 385.961, 577 385.605, 577 385.391 C 577 384.638, 571.113 385.008, 570.629 385.791 M 576 399.333 C 576 400.250, 575.550 401, 575 401 C 573.193 401, 573.956 402.755, 575.995 403.289 C 577.720 403.740, 577.904 403.450, 577.355 401.155 C 576.572 397.887, 576 397.118, 576 399.333 M 567 403.387 C 567 404.892, 566.375 405.146, 563.500 404.810 C 558.815 404.263, 559.014 405.593, 563.750 406.478 C 565.813 406.864, 567.950 407.515, 568.500 407.927 C 569.050 408.338, 570.625 408.079, 572 407.352 C 574.401 406.082, 574.413 406.029, 572.307 406.015 C 571.100 406.007, 569.413 405, 568.557 403.777 C 567.190 401.826, 567 401.778, 567 403.387 M 531.083 403.283 C 531.313 403.439, 532.288 404.169, 533.250 404.905 C 534.748 406.052, 535 406.011, 535 404.622 C 535 403.625, 534.165 403, 532.833 403 C 531.642 403, 530.854 403.127, 531.083 403.283 M 552.550 403.888 C 554.055 405.294, 558 406.232, 558 405.184 C 558 404.661, 556.987 403.962, 555.750 403.630 C 552.487 402.756, 551.430 402.841, 552.550 403.888" stroke="none" fill="#ededed" fill-rule="evenodd"/><path d="M 0 226.003 L 0 451.993 339.750 451.747 L 679.500 451.500 679.752 225.750 L 680.004 -0.001 340.002 0.006 L 0 0.012 0 226.003 M 0.491 226.500 C 0.491 350.800, 0.608 401.501, 0.750 339.170 C 0.892 276.838, 0.892 175.138, 0.750 113.170 C 0.608 51.201, 0.491 102.200, 0.491 226.500 M 64.118 10.183 C 63.413 11.312, 63.210 12.610, 63.668 13.068 C 64.126 13.525, 65.020 12.798, 65.656 11.451 C 67.093 8.403, 65.863 7.389, 64.118 10.183 M 243.229 55.188 C 243.834 57.001, 245.667 57.257, 245.667 55.528 C 245.667 54.688, 245.029 54, 244.250 54 C 243.471 54, 243.011 54.534, 243.229 55.188 M 88 73 C 88 73.550, 88.927 74, 90.059 74 C 91.191 74, 91.840 73.550, 91.500 73 C 91.160 72.450, 90.234 72, 89.441 72 C 88.648 72, 88 72.450, 88 73 M 415.951 121.724 C 415.677 124.047, 415.833 125.567, 416.299 125.101 C 416.765 124.635, 416.989 122.735, 416.798 120.877 C 416.459 117.583, 416.438 117.604, 415.951 121.724 M 294.529 122.614 C 293.688 123.455, 293 124.524, 293 124.990 C 293 125.455, 292.727 126.548, 292.393 127.418 C 292.059 128.288, 292.254 129, 292.827 129 C 293.399 129, 294.010 127.780, 294.184 126.290 C 294.410 124.351, 295.212 123.412, 297 122.994 C 299.065 122.510, 299.200 122.293, 297.779 121.746 C 296.781 121.363, 295.415 121.727, 294.529 122.614 M 178.515 126.250 C 178.151 128.588, 177.631 131.287, 177.360 132.250 C 177.088 133.213, 177.346 134, 177.933 134 C 178.520 134, 179 132.760, 179 131.243 C 179 129.727, 179.419 127.027, 179.930 125.243 C 180.442 123.460, 180.481 122, 180.018 122 C 179.555 122, 178.878 123.912, 178.515 126.250 M 147 134.667 C 147 137.233, 147.163 139.146, 147.362 138.917 C 148.239 137.909, 148.720 130, 147.905 130 C 147.407 130, 147 132.100, 147 134.667 M 235.639 131.694 C 234.513 132.820, 234.954 134, 236.500 134 C 237.325 134, 238 133.577, 238 133.059 C 238 131.798, 236.438 130.895, 235.639 131.694 M 416.250 156.031 C 414.328 156.804, 413.991 157.706, 413.936 162.218 C 413.763 176.480, 414.220 186.560, 415.086 187.603 C 416.565 189.386, 422.088 190.171, 423.706 188.829 C 425.257 187.541, 452 186.237, 452 187.449 C 452 188.717, 443.408 205.394, 440.787 209.213 C 439.386 211.255, 436.614 216.987, 434.627 221.951 C 432.641 226.914, 428.969 235.368, 426.467 240.738 C 419.079 256.597, 418.906 257.017, 414.870 268.830 C 410.146 282.660, 409.967 285.596, 413.750 287.258 C 417.355 288.842, 490.006 288.603, 493.006 286.997 C 494.833 286.019, 495 284.894, 495 273.536 C 495 259.658, 494.549 258.569, 488.322 257.401 C 486.334 257.028, 477.799 256.955, 469.354 257.239 C 460.909 257.522, 454 257.662, 454 257.550 C 454 256.446, 460.126 243.029, 465.208 233 C 468.692 226.125, 472.603 217.800, 473.900 214.500 C 478.290 203.325, 481.231 196.530, 486.017 186.500 C 488.641 181, 492.013 172.743, 493.509 168.151 C 495.857 160.947, 496.036 159.607, 494.813 158.385 C 493.670 157.241, 487.041 156.871, 460.448 156.465 C 442.327 156.188, 425.475 155.773, 423 155.544 C 420.525 155.314, 417.488 155.534, 416.250 156.031 M 172 157.357 C 157.436 160.772, 150.504 164.469, 140.313 174.255 C 136.841 177.589, 134 179.833, 134 179.241 C 134 177.507, 129.997 168.670, 129.456 169.210 C 129.185 169.482, 129.838 172.515, 130.908 175.952 L 132.853 182.200 129.550 186.850 C 121.353 198.389, 118.562 208.102, 118.586 225 C 118.601 235.942, 118.950 238.559, 121.387 246 C 125.390 258.222, 128.435 263.206, 136.008 269.937 C 147.312 279.983, 159.078 285.713, 175 288.926 C 184.509 290.844, 199.727 288.778, 208.143 284.426 C 209.817 283.561, 211.289 282.998, 211.415 283.176 C 211.541 283.354, 212.824 286.045, 214.265 289.155 C 215.705 292.266, 217.366 295.108, 217.954 295.472 C 219.505 296.430, 233.810 294.205, 238.500 292.275 C 240.700 291.370, 243.490 289.756, 244.699 288.689 L 246.898 286.747 243.525 280.050 C 241.670 276.367, 238.589 271.305, 236.678 268.801 L 233.202 264.248 237.616 256.874 C 242.528 248.668, 247.591 233.665, 248.541 224.500 C 250.037 210.079, 245.761 195.034, 236.751 183.014 C 226.427 169.242, 223.954 166.990, 214 162.297 C 208.775 159.834, 203.600 157.612, 202.500 157.360 C 197.260 156.159, 177.117 156.157, 172 157.357 M 262 156.956 C 260.211 158.122, 260.160 167.971, 261.816 192 C 262.404 200.525, 263.186 214.475, 263.555 223 C 263.924 231.525, 264.410 239.400, 264.637 240.500 C 264.863 241.600, 265.468 245.650, 265.983 249.500 C 267.768 262.865, 271.361 270.359, 279.722 278.157 C 287.555 285.462, 291.885 287.235, 303.251 287.791 C 311.634 288.201, 313.878 287.950, 319.251 286.005 C 334.643 280.434, 341.726 274.990, 345.057 266.172 C 346.709 261.798, 347.513 256.037, 348.569 241 C 349.322 230.275, 350.218 217.900, 350.558 213.500 C 351.389 202.769, 351.309 168.166, 350.443 163.547 C 349.934 160.833, 349.056 159.581, 347.125 158.817 C 344.038 157.596, 320.003 157.597, 318.782 158.818 C 318.322 159.278, 318.791 167.495, 319.825 177.077 C 321.968 196.946, 322.591 209.431, 322.280 226.274 C 321.976 242.745, 318.843 252.127, 312.025 256.982 C 308.490 259.500, 307.511 259.500, 303.977 256.984 C 301.523 255.236, 300.789 253.433, 298.470 243.460 C 296.276 234.029, 296.023 231.677, 297.066 230.420 C 298.108 229.165, 298.086 228.943, 296.945 229.194 C 293.868 229.870, 290.914 199.334, 291.683 174.789 C 292.253 156.555, 292.458 156.884, 280.700 157.156 C 275.640 157.274, 269.700 157.057, 267.500 156.674 C 265.280 156.288, 262.833 156.414, 262 156.956 M 232.638 158.500 C 232.288 159.414, 232.637 160, 233.531 160 C 234.339 160, 235 159.325, 235 158.500 C 235 157.675, 234.598 157, 234.107 157 C 233.616 157, 232.955 157.675, 232.638 158.500 M 385.500 159.206 C 382.200 159.635, 376.125 159.929, 372 159.859 C 367.875 159.789, 363.901 159.792, 363.169 159.866 C 362.069 159.977, 361.955 170.884, 362.510 222.750 C 362.934 262.444, 363.551 285.949, 364.189 286.722 C 364.901 287.584, 368.180 287.835, 375.349 287.576 C 389.395 287.068, 392.551 286.322, 395.506 282.811 L 398 279.847 397.971 249.173 C 397.955 232.303, 397.504 212.650, 396.968 205.500 C 395.923 191.546, 395.651 172.969, 396.435 169.167 C 397.205 165.437, 395.940 161.185, 393.633 159.751 C 392.072 158.781, 389.890 158.635, 385.500 159.206 M 176.718 164.530 C 166.922 170.384, 140 190.879, 140 192.484 C 140 194.952, 141.185 194.331, 149.544 187.478 C 158.447 180.180, 161.413 177.897, 174.923 167.943 C 185.152 160.407, 185.854 159.071, 176.718 164.530 M 220.627 162.530 C 220.188 163.675, 220.495 164.051, 221.682 163.823 C 223.458 163.481, 223.800 161.767, 222.198 161.233 C 221.675 161.058, 220.968 161.642, 220.627 162.530 M 189.359 164.392 C 187.081 165.695, 181.886 169.224, 177.816 172.234 C 173.745 175.245, 169.414 178.243, 168.191 178.898 C 166.969 179.552, 163.819 181.980, 161.191 184.294 C 158.564 186.607, 154.858 189.763, 152.957 191.306 C 149.726 193.928, 149.794 193.913, 154 191.075 C 156.475 189.405, 162.550 185.129, 167.500 181.574 C 172.450 178.018, 179.875 172.978, 184 170.375 C 193.659 164.279, 196.629 161.997, 194.885 162.012 C 194.123 162.019, 191.636 163.090, 189.359 164.392 M 271.709 166.656 C 269.074 168.634, 267.141 170.474, 267.413 170.747 C 267.685 171.019, 269.841 169.757, 272.204 167.943 C 278.158 163.371, 278.560 162.995, 277.450 163.030 C 276.928 163.047, 274.344 164.679, 271.709 166.656 M 330.200 167.425 C 327.624 169.859, 325.769 172.102, 326.077 172.410 C 326.385 172.718, 329.081 170.734, 332.068 168.001 C 335.056 165.267, 336.911 163.024, 336.192 163.015 C 335.472 163.007, 332.776 164.991, 330.200 167.425 M 422.105 164.085 C 420.787 164.612, 419.960 165.294, 420.266 165.600 C 420.573 165.906, 422.100 165.464, 423.662 164.618 C 426.803 162.916, 425.846 162.588, 422.105 164.085 M 428.571 167.275 C 424.760 169.599, 421.455 172.077, 421.227 172.782 C 420.999 173.488, 423.892 171.950, 427.656 169.366 C 438.908 161.643, 439.308 160.727, 428.571 167.275 M 446.759 171.753 C 437.047 178.420, 434.525 180.580, 436.152 180.838 C 437.389 181.034, 440.016 179.889, 442.394 178.118 C 444.652 176.436, 449.731 172.804, 453.681 170.046 C 457.631 167.288, 461.145 164.575, 461.490 164.016 C 463.196 161.256, 458.315 163.819, 446.759 171.753 M 478.672 165.633 C 474.303 167.825, 457.065 181, 458.568 181 C 458.913 181, 462.640 178.572, 466.851 175.605 C 471.061 172.638, 476.969 168.588, 479.980 166.605 C 486.231 162.488, 485.711 162.102, 478.672 165.633 M 190.500 172 L 178.500 179.997 182.932 179.998 C 187.122 180, 187.809 179.565, 195.560 172 C 200.067 167.600, 203.473 164.001, 203.128 164.002 C 202.783 164.002, 197.100 167.602, 190.500 172 M 445.530 164.732 C 439.774 166.192, 422 178.194, 422 180.620 C 422 181.379, 422.429 182, 422.953 182 C 423.786 182, 445.912 167.116, 448.450 164.849 C 449.481 163.928, 448.806 163.901, 445.530 164.732 M 282.821 166.262 C 282.095 166.956, 280.263 168.071, 278.752 168.739 C 274.021 170.833, 267 177.995, 267 180.728 C 267 183.034, 267.388 182.845, 272.750 177.930 C 275.913 175.032, 279.914 171.820, 281.643 170.795 C 283.371 169.769, 285.016 168.045, 285.299 166.965 C 285.885 164.724, 284.765 164.406, 282.821 166.262 M 339.410 167.875 C 334.238 171.696, 326.465 179.798, 327.234 180.567 C 328.103 181.436, 334.031 176.859, 333.386 175.816 C 333.092 175.340, 333.283 175.074, 333.811 175.225 C 335.267 175.642, 342.882 169.752, 343.575 167.675 C 344.549 164.748, 343.578 164.795, 339.410 167.875 M 200.931 173.953 C 196.514 178.085, 194.154 180.924, 195.113 180.953 C 196 180.979, 199.681 177.850, 203.292 174 C 206.904 170.150, 209.522 167, 209.111 167 C 208.699 167, 205.018 170.129, 200.931 173.953 M 381.855 174.780 C 373.985 182.839, 370 187.666, 370 189.138 C 370 189.615, 371.661 188.092, 373.691 185.753 C 375.720 183.414, 380.308 178.475, 383.886 174.778 C 387.463 171.081, 390.166 167.832, 389.892 167.558 C 389.618 167.284, 386.001 170.534, 381.855 174.780 M 458.455 172.261 C 447.888 179.671, 445.359 182, 447.875 182 C 448.357 182, 452.656 178.850, 457.430 175 C 467.138 167.170, 467.645 165.816, 458.455 172.261 M 476.926 174.557 C 471.742 178.154, 465.371 182.537, 462.768 184.298 C 454.390 189.967, 457.701 189.205, 466.716 183.389 C 471.509 180.297, 477.777 176.616, 480.644 175.210 C 483.708 173.708, 486.077 171.815, 486.389 170.620 C 486.681 169.502, 486.793 168.459, 486.636 168.303 C 486.480 168.146, 482.110 170.961, 476.926 174.557 M 576 169.470 C 576 170.278, 576.824 172.415, 577.831 174.220 C 578.839 176.024, 580.498 179.750, 581.518 182.500 C 582.539 185.250, 584.173 188.552, 585.151 189.839 L 586.927 192.177 586.426 188.839 C 586.151 187.002, 585.791 184.600, 585.627 183.500 C 585.464 182.400, 584.838 180.600, 584.236 179.500 C 583.635 178.400, 582.323 175.364, 581.321 172.754 C 580.110 169.598, 578.914 168.006, 577.750 168.004 C 576.788 168.002, 576 168.661, 576 169.470 M 206.500 178 C 203.234 181.300, 201.013 184, 201.563 184 C 202.113 184, 205.234 181.300, 208.500 178 C 211.766 174.700, 213.987 172, 213.437 172 C 212.887 172, 209.766 174.700, 206.500 178 M 341.500 175.580 C 338.422 177.804, 328 188.288, 328 189.159 C 328 190.146, 339.940 181.829, 342.356 179.159 C 343.357 178.053, 344.023 176.471, 343.838 175.642 C 343.542 174.320, 343.253 174.313, 341.500 175.580 M 276.892 180.584 C 268.221 188.080, 268.209 189.325, 276.868 183.027 C 284.493 177.481, 285.517 176.438, 284.159 175.598 C 283.678 175.301, 280.408 177.544, 276.892 180.584 M 146 179.637 C 140.556 183.913, 139.882 184.600, 142.500 183.205 C 144.678 182.044, 151.812 176.075, 151 176.092 C 150.725 176.098, 148.475 177.693, 146 179.637 M 217.322 183.272 C 213.681 186.806, 211.107 189.941, 211.601 190.239 C 212.096 190.536, 215.594 187.965, 219.376 184.526 C 223.754 180.546, 225.832 178.014, 225.096 177.560 C 224.410 177.135, 221.252 179.456, 217.322 183.272 M 386 179.500 C 384.712 180.871, 383.884 182.217, 384.159 182.492 C 384.434 182.767, 385.712 181.871, 387 180.500 C 388.288 179.129, 389.116 177.783, 388.841 177.508 C 388.566 177.233, 387.288 178.129, 386 179.500 M 473.452 184.871 C 466.901 188.442, 456 195.733, 456 196.542 C 456 197.354, 480.382 185.002, 481.141 183.806 C 483.564 179.986, 482.019 180.200, 473.452 184.871 M 298.937 184.980 C 297.047 186.596, 295.950 187.935, 296.500 187.954 C 297.932 188.005, 303.611 183.291, 302.937 182.610 C 302.628 182.297, 300.828 183.364, 298.937 184.980 M 220.665 189.931 C 217.290 193.193, 214.766 196.100, 215.057 196.391 C 215.657 196.990, 218.688 194.351, 224.453 188.211 C 230.354 181.925, 227.702 183.129, 220.665 189.931 M 279.445 186.754 C 272.762 191.280, 268 195.424, 268 196.717 C 268 198.121, 279.323 190.439, 282.924 186.591 C 286.074 183.225, 284.552 183.296, 279.445 186.754 M 335.765 189.978 C 332.116 193.322, 329.033 197.045, 328.769 198.429 C 328.338 200.683, 328.791 200.486, 333.898 196.201 C 339.763 191.279, 342.020 188.756, 343.218 185.782 C 344.458 182.704, 342.502 183.805, 335.765 189.978 M 179.226 186.220 C 167.776 187.893, 155.700 197.004, 151.871 206.857 C 150.088 211.446, 149.699 214.406, 149.787 222.699 C 149.945 237.544, 150.847 240.193, 159.223 250.388 C 162.985 254.967, 172.367 258.979, 181.006 259.704 C 184.853 260.026, 188 259.990, 188 259.623 C 188 259.256, 186.186 255.348, 183.969 250.938 C 181.435 245.897, 179.521 243.178, 178.814 243.615 C 178.161 244.019, 177.968 243.861, 178.353 243.238 C 179.240 241.802, 177.346 237.012, 174.826 234.321 C 173.704 233.123, 172.974 231.578, 173.204 230.888 C 173.691 229.426, 190.477 225.683, 196.873 225.610 C 200.374 225.570, 201.630 226.053, 203.165 228.030 C 214.253 242.308, 214.281 242.337, 215.574 240.568 C 217.896 237.393, 219.135 226.607, 217.997 219.481 C 214.127 195.256, 200.047 183.177, 179.226 186.220 M 384.486 189.761 C 381.728 192.367, 377.853 196.525, 375.875 199 C 367.897 208.983, 369.235 208.943, 379.436 198.893 C 386.155 192.273, 390.070 187.673, 389.851 186.654 C 389.584 185.414, 388.296 186.160, 384.486 189.761 M 229.333 190.479 C 225.177 193.390, 218.958 201.727, 219.632 203.484 C 220.153 204.841, 221.713 203.749, 227.590 197.910 C 231.611 193.916, 234.672 190.278, 234.391 189.824 C 233.622 188.580, 231.687 188.830, 229.333 190.479 M 283.663 191.758 C 283.228 192.450, 279.526 195.490, 275.436 198.515 C 271.346 201.540, 268 204.699, 268 205.535 C 268 206.550, 270.243 205.387, 274.750 202.036 C 278.462 199.275, 282.340 196.436, 283.366 195.728 C 284.443 194.984, 285.067 193.607, 284.842 192.470 C 284.563 191.057, 284.230 190.856, 283.663 191.758 M 133.351 195.779 C 130.313 198.403, 127.433 202.766, 128.219 203.552 C 129.054 204.388, 138.500 196.788, 138.500 195.281 C 138.500 192.688, 136.729 192.859, 133.351 195.779 M 464.381 198.528 C 454.594 203.563, 450 206.888, 450 208.936 C 450 209.329, 455.288 207.041, 461.750 203.850 C 472.223 198.680, 477.268 194.934, 475.771 193.438 C 475.492 193.158, 470.366 195.449, 464.381 198.528 M 336.059 200.677 C 326.759 209.389, 326.750 212.828, 336.049 204.547 C 342.864 198.478, 344.365 196.596, 343.784 194.851 C 343.587 194.260, 340.111 196.882, 336.059 200.677 M 230.225 202.274 C 225.600 206.930, 223 210.348, 223 211.774 C 223 215.749, 224.006 214.917, 232.312 204.077 C 237.230 197.658, 238.816 195, 237.725 195 C 237.574 195, 234.199 198.273, 230.225 202.274 M 383.404 201.567 C 370.783 214.538, 373.204 213.475, 389.363 198.950 C 389.837 198.524, 390.018 197.573, 389.766 196.838 C 389.472 195.980, 387.188 197.678, 383.404 201.567 M 588.778 199.556 C 588.033 200.300, 592.237 211.998, 593.250 211.999 C 594.378 212, 594.128 208.955, 592.653 204.718 C 591.230 200.633, 589.717 198.617, 588.778 199.556 M 139.055 202.433 C 138.401 203.222, 135.220 205.580, 131.987 207.673 C 126.957 210.930, 124.118 214.451, 125.448 215.781 C 125.651 215.984, 129.346 212.750, 133.659 208.595 C 137.971 204.439, 141.218 201.030, 140.872 201.020 C 140.527 201.009, 139.710 201.645, 139.055 202.433 M 284.064 202.500 C 283.997 203.913, 283.733 204.127, 283.162 203.228 C 282.568 202.293, 280.612 203.277, 275.750 206.957 C 269.005 212.063, 267.397 213.730, 268.323 214.656 C 268.867 215.201, 280.115 207.883, 283.358 204.874 C 284.380 203.925, 284.978 202.553, 284.687 201.825 C 284.369 201.028, 284.120 201.297, 284.064 202.500 M 144.422 205.449 C 143.280 206.577, 138.217 211.280, 133.172 215.900 C 123.753 224.527, 120.276 230.106, 128.227 223.834 C 137.380 216.615, 144.485 209.689, 144.183 208.280 C 144.009 207.466, 144.295 207.064, 144.819 207.388 C 145.344 207.712, 146.031 206.990, 146.347 205.782 C 147.077 202.989, 146.939 202.965, 144.422 205.449 M 236.056 207.631 C 234.162 210.144, 230.675 214.252, 228.306 216.759 C 225 220.259, 224 222.094, 224 224.659 C 224 226.497, 224.173 228, 224.385 228 C 224.597 228, 226.610 224.963, 228.858 221.250 C 231.107 217.537, 234.758 212.314, 236.973 209.641 C 239.188 206.969, 241 204.381, 241 203.891 C 241 202.002, 239.368 203.237, 236.056 207.631 M 336.250 211.024 C 331.549 215.538, 329 218.760, 329 220.189 C 329 222.234, 329.252 222.148, 332.500 219 C 334.425 217.134, 336 215.262, 336 214.840 C 336 214.418, 337.863 212.334, 340.141 210.209 C 342.419 208.085, 344.106 205.833, 343.891 205.205 C 343.676 204.577, 340.238 207.196, 336.250 211.024 M 383.494 210.002 C 375.409 217.403, 369.802 224.632, 370.188 227.157 C 370.445 228.836, 372.237 227.519, 380.327 219.704 C 388.833 211.487, 390.109 209.828, 389.827 207.358 L 389.500 204.505 383.494 210.002 M 460 210.023 C 454.775 212.743, 449.986 214.976, 449.357 214.984 C 447.913 215.004, 446.780 217.835, 447.651 219.245 C 448.039 219.872, 447.835 220.016, 447.155 219.595 C 446.520 219.203, 446 219.359, 446 219.941 C 446 221.514, 447.879 221.231, 451.382 219.131 C 453.097 218.102, 457.355 216.190, 460.844 214.881 C 466.131 212.897, 467.509 211.875, 469.114 208.750 C 470.174 206.688, 470.694 205.017, 470.270 205.039 C 469.847 205.060, 465.225 207.303, 460 210.023 M 257.168 211.051 C 257.753 212.729, 258.426 213.907, 258.664 213.669 C 259.367 212.966, 257.860 208, 256.944 208 C 256.482 208, 256.583 209.373, 257.168 211.051 M 239.615 214.045 C 238.167 215.767, 235.774 219.273, 234.299 221.838 C 232.823 224.402, 229.438 229.764, 226.775 233.753 C 224.113 237.742, 221.643 241.792, 221.287 242.753 C 220.396 245.157, 207.164 268.220, 202.670 275.202 C 200.652 278.338, 199 281.179, 199 281.516 C 199 281.853, 200.810 281.111, 203.023 279.867 C 205.912 278.243, 207.724 276.182, 209.450 272.553 C 214.281 262.402, 219 251.942, 219 251.384 C 219 250.821, 223.790 243.343, 233.017 229.500 C 241.973 216.064, 246.151 206.278, 239.615 214.045 M 279.991 212.944 C 275.224 215.466, 267.323 222.620, 268.254 223.571 C 268.669 223.995, 270.019 223.414, 271.254 222.281 C 272.489 221.148, 276.087 218.582, 279.250 216.580 C 282.413 214.577, 285 212.502, 285 211.969 C 285 210.618, 284.033 210.806, 279.991 212.944 M 335.662 222.823 C 330.126 228.401, 327.924 231.315, 328.162 232.744 C 328.447 234.450, 329.725 233.623, 336.324 227.463 C 342.779 221.438, 344.092 219.702, 343.824 217.543 C 343.518 215.069, 343.069 215.360, 335.662 222.823 M 379.750 226.836 C 369.101 237.579, 366.522 241.542, 375.803 232.902 C 378.994 229.931, 383.550 225.925, 385.926 224 C 388.699 221.753, 390.112 219.873, 389.873 218.750 C 389.594 217.440, 387.042 219.479, 379.750 226.836 M 595.817 218.516 C 595.533 218.800, 595.898 221.334, 596.628 224.148 C 597.358 226.961, 597.714 229.654, 597.419 230.132 C 597.123 230.609, 597.584 231, 598.441 231 C 600.479 231, 600.501 226.443, 598.487 221.622 C 596.931 217.899, 596.702 217.632, 595.817 218.516 M 138.383 221.833 C 136.670 223.300, 132.958 226.437, 130.134 228.805 C 127.310 231.173, 125 233.588, 125 234.172 C 125 235.168, 127.324 233.278, 137.826 223.746 C 142.713 219.309, 143.173 217.732, 138.383 221.833 M 280.869 221.255 C 275.371 224.655, 270 229.743, 270 231.553 C 270 233.599, 270.191 233.505, 278.184 227.500 C 281.845 224.750, 285.059 221.713, 285.326 220.750 C 285.961 218.467, 285.249 218.547, 280.869 221.255 M 453.683 223.403 C 443.695 227.810, 441.114 229.447, 442.292 230.626 C 443.382 231.715, 460.151 225.131, 462.147 222.830 C 463.719 221.018, 464.608 218.914, 463.750 219.035 C 463.613 219.055, 459.082 221.020, 453.683 223.403 M 237.500 230.802 C 231.071 240.218, 225.603 249.318, 222.959 255 C 221.808 257.475, 220.017 261.300, 218.980 263.500 C 217.943 265.700, 216.387 269.300, 215.522 271.500 L 213.949 275.500 216.436 272.500 C 217.805 270.850, 219.682 267.925, 220.609 266 C 221.535 264.075, 223.998 258.895, 226.081 254.488 C 229.299 247.681, 235.022 238.386, 241.578 229.316 C 242.446 228.115, 243.009 226.310, 242.828 225.305 C 242.596 224.013, 241.039 225.619, 237.500 230.802 M 133.846 233.850 C 129.636 237.507, 126.360 240.674, 126.566 240.887 C 126.979 241.313, 140.694 230.304, 141.623 228.802 C 143.199 226.250, 140.798 227.809, 133.846 233.850 M 385.495 230.231 C 377.977 236.364, 370 245.349, 370 247.684 C 370 248.732, 373.473 246.009, 379.250 240.431 C 389.126 230.896, 390.326 229.478, 389.816 227.948 C 389.637 227.411, 387.693 228.438, 385.495 230.231 M 277.887 233.996 L 271.500 239.992 278.750 235.362 C 282.738 232.816, 286 230.118, 286 229.366 C 286 226.962, 284.417 227.865, 277.887 233.996 M 337.295 232.761 C 332.297 237.311, 327 244.241, 327 246.228 C 327 247.338, 342.737 231.099, 343.453 229.250 C 344.342 226.956, 342.546 227.980, 337.295 232.761 M 451.500 233.406 C 443.755 235.889, 437.526 238.859, 438.345 239.678 C 439.143 240.476, 456.801 233.944, 458.110 232.368 C 458.734 231.615, 459.077 231.037, 458.872 231.081 C 458.668 231.126, 455.350 232.172, 451.500 233.406 M 193.250 238.980 C 189.003 244.766, 187.337 249.625, 190.500 247 C 191.325 246.315, 192 245.223, 192 244.573 C 192 243.923, 193.373 241.227, 195.051 238.580 C 196.729 235.934, 197.967 233.639, 197.801 233.480 C 197.636 233.321, 195.588 235.796, 193.250 238.980 M 135 240.944 C 130.875 244.725, 127.864 248.186, 128.309 248.635 C 128.754 249.084, 132.527 245.974, 136.694 241.725 C 140.861 237.476, 143.873 234.015, 143.386 234.034 C 142.898 234.053, 139.125 237.163, 135 240.944 M 186.857 238.250 C 185.240 240.556, 185.091 241.088, 186.344 240.082 C 188.126 238.651, 190.468 235, 189.603 235 C 189.346 235, 188.111 236.463, 186.857 238.250 M 199.588 240.259 C 198.165 242.688, 196.990 245.086, 196.978 245.588 C 196.966 246.090, 196.076 247.625, 195 249 C 193.924 250.375, 193.034 251.925, 193.022 252.444 C 193.010 252.964, 194.125 251.864, 195.500 250 C 196.875 248.136, 198 246.240, 198 245.786 C 198 245.332, 199.157 243.127, 200.572 240.886 C 201.987 238.645, 202.927 236.593, 202.660 236.327 C 202.394 236.061, 201.012 237.830, 199.588 240.259 M 279.720 240.678 C 275.598 243.548, 273 246.061, 273 247.178 C 273 248.180, 273.249 249, 273.553 249 C 274.667 249, 288 237.886, 288 236.957 C 288 235.266, 286.577 235.905, 279.720 240.678 M 379.415 246.599 C 374.512 251.878, 370.335 256.647, 370.134 257.196 C 369.594 258.670, 372.949 256.644, 376.556 253.318 C 378.237 251.768, 381.950 248.406, 384.806 245.847 C 387.935 243.045, 390 240.360, 390 239.097 C 390 237.944, 389.624 237, 389.165 237 C 388.705 237, 384.318 241.319, 379.415 246.599 M 329.275 251.407 C 322.551 258.058, 312.651 267.765, 307.275 272.979 C 298.650 281.342, 297.774 282.499, 299.832 282.809 C 302.357 283.190, 304.309 281.496, 328.676 257.773 C 337.794 248.898, 342.054 244.030, 342.506 241.973 C 342.865 240.338, 342.786 239.070, 342.329 239.157 C 341.873 239.243, 335.999 244.755, 329.275 251.407 M 602 240.482 C 602 243.390, 606.142 258.376, 607.257 259.500 C 608.631 260.886, 607.328 251.057, 605.353 245.141 C 603.584 239.839, 602 237.639, 602 240.482 M 138.156 247.432 C 134.513 250.970, 131.774 254.107, 132.071 254.404 C 132.367 254.701, 135.723 251.806, 139.528 247.972 C 148.225 239.207, 147.087 238.760, 138.156 247.432 M 204.372 244.314 C 200.294 250.564, 196.868 257.105, 197.182 258.045 C 197.357 258.570, 199.750 255.993, 202.500 252.319 C 209.132 243.456, 209.169 243.385, 207.712 242.176 C 206.774 241.397, 205.918 241.945, 204.372 244.314 M 444.807 243.432 C 437.378 245.585, 434 247.346, 434 249.067 C 434 249.995, 450.988 244.351, 452.433 242.943 C 454.301 241.123, 452.345 241.248, 444.807 243.432 M 281.057 249.608 C 273.374 256.721, 273.166 258.603, 280.746 252.429 C 283.907 249.855, 287.057 247.532, 287.746 247.267 C 289.200 246.709, 289.457 244, 288.057 244 C 287.538 244, 284.388 246.523, 281.057 249.608 M 143.920 250.750 C 142.003 252.813, 139.549 255.617, 138.467 256.983 C 134.868 261.525, 139.678 257.162, 144.124 251.852 C 148.949 246.090, 148.833 245.465, 143.920 250.750 M 387.300 249.259 C 386.860 249.952, 383.012 253.607, 378.750 257.382 C 374.488 261.157, 371 264.975, 371 265.867 C 371 266.943, 372.268 266.145, 374.769 263.495 C 376.841 261.298, 380.779 257.700, 383.519 255.500 C 388.687 251.350, 389.959 250.022, 389.985 248.750 C 390.009 247.540, 388.170 247.889, 387.300 249.259 M 208.581 252.250 C 201.742 261.123, 189.292 278.220, 187.693 280.934 L 185.887 284 188.393 284 C 191.334 284, 193.421 281.441, 201.036 268.500 C 203.949 263.550, 206.915 258.809, 207.628 257.963 C 209.109 256.207, 212.267 249, 211.556 249 C 211.297 249, 209.958 250.463, 208.581 252.250 M 439.069 253.306 C 433.882 255.110, 429.449 257.154, 429.217 257.849 C 428.915 258.755, 429.884 258.639, 432.648 257.436 C 434.767 256.514, 439.336 254.740, 442.803 253.493 C 448.834 251.325, 451.381 249.985, 449.417 250.013 C 448.913 250.021, 444.256 251.502, 439.069 253.306 M 144.512 258.750 L 138.669 265.500 145.335 259.029 C 149.001 255.470, 152 252.432, 152 252.279 C 152 250.856, 149.403 253.100, 144.512 258.750 M 285.766 255.097 L 282.500 258.193 285.720 256.050 C 287.491 254.871, 289.205 253.478, 289.529 252.953 C 290.688 251.077, 288.976 252.052, 285.766 255.097 M 325.037 268.047 C 305.927 286.484, 309.407 286.801, 330.984 268.589 C 338.598 262.163, 341 259.008, 341 255.435 C 341 254.646, 340.663 254.021, 340.250 254.047 C 339.837 254.072, 332.992 260.372, 325.037 268.047 M 287.658 259.933 C 281.892 264.517, 279.298 267.632, 280.362 268.696 C 281.003 269.337, 287.273 264.478, 291.360 260.173 C 296.136 255.143, 293.868 254.996, 287.658 259.933 M 149.593 262.062 C 143.154 268.086, 143 268.342, 144.703 270.224 C 146.433 272.136, 146.502 272.119, 148.981 269.191 C 156.618 260.167, 158.201 257.801, 157.243 256.843 C 156.575 256.175, 154.030 257.911, 149.593 262.062 M 381.773 263.250 C 370.812 273.857, 370.064 276.940, 380.842 267.090 C 385.879 262.486, 390 258.108, 390 257.360 C 390 256.612, 389.835 256, 389.632 256 C 389.430 256, 385.894 259.262, 381.773 263.250 M 435.137 261.455 C 430.537 263.309, 426.286 265.314, 425.690 265.910 C 424.709 266.891, 428.366 265.623, 439.298 261.192 C 441.387 260.345, 443.326 259.281, 443.607 258.826 C 444.284 257.732, 444.675 257.611, 435.137 261.455 M 159.340 264.265 C 155.429 268.451, 151.647 273.980, 152.269 274.602 C 152.537 274.870, 155.116 272.124, 158 268.500 C 163.565 261.507, 164.408 258.842, 159.340 264.265 M 290.007 267.700 C 285.339 272.022, 283.228 274.628, 283.874 275.274 C 284.519 275.919, 287.463 273.897, 292.429 269.400 C 296.593 265.629, 300 262.469, 300 262.378 C 300 262.288, 299.353 261.966, 298.562 261.662 C 297.689 261.327, 294.330 263.697, 290.007 267.700 M 470.500 266.478 C 467.200 268.373, 461.350 272.846, 457.500 276.416 L 450.500 282.907 454 282.930 C 457.109 282.949, 458.618 281.837, 467.500 272.983 C 473 267.501, 477.275 263.018, 477 263.023 C 476.725 263.027, 473.800 264.582, 470.500 266.478 M 165.181 266.963 C 163.693 268.592, 161.618 271.405, 160.571 273.213 C 158.671 276.492, 158.671 276.496, 160.667 274.746 C 163.084 272.626, 169.376 264, 168.506 264 C 168.166 264, 166.670 265.333, 165.181 266.963 M 187.649 268.750 C 181.993 274.738, 177 281.014, 177 282.138 C 177 282.612, 177.597 283, 178.326 283 C 180.469 283, 183.004 279.780, 192.300 265.250 C 193.941 262.685, 191.998 264.147, 187.649 268.750 M 481.946 266.882 C 479.501 268.466, 474.575 272.798, 471 276.507 L 464.500 283.251 468 282.602 C 470.609 282.118, 473.601 279.864, 479.750 273.749 C 484.288 269.236, 488 265.197, 488 264.772 C 488 263.409, 486.494 263.934, 481.946 266.882 M 296.750 271.618 C 292.488 275.245, 289 278.566, 289 278.999 C 289 279.432, 289.715 280.060, 290.589 280.396 C 291.692 280.819, 294.555 278.555, 299.938 273.003 C 309.421 263.221, 307.566 262.415, 296.750 271.618 M 380.814 273.549 C 376.036 278.175, 372.572 282.235, 373.115 282.571 C 374.356 283.338, 390.404 267.687, 389.883 266.217 C 389.672 265.623, 385.591 268.922, 380.814 273.549 M 441.484 270.781 C 435.993 273.960, 429.708 277.785, 427.518 279.281 L 423.536 282 426.956 282 C 429.476 282, 431.838 280.853, 435.938 277.637 C 438.997 275.238, 444.162 271.413, 447.416 269.137 C 455.780 263.287, 453.184 264.007, 441.484 270.781 M 178.386 269.750 C 174.058 273.751, 168.642 281, 169.981 281 C 171.183 281, 174.551 277.300, 179.237 270.831 C 182.534 266.280, 182.367 266.069, 178.386 269.750 M 225 267.786 C 225 268.283, 223.200 271.475, 221 274.879 C 217.069 280.961, 215.339 286.234, 218.347 282.964 C 221.002 280.078, 226.910 268.062, 225.962 267.476 C 225.433 267.149, 225 267.289, 225 267.786 M 450.809 272.620 C 446.239 275.710, 441.385 279.310, 440.023 280.620 L 437.545 283 439.878 283 C 441.161 283, 443.626 281.810, 445.356 280.356 C 451.635 275.076, 460.326 267, 459.730 267 C 459.394 267, 455.380 269.529, 450.809 272.620 M 432 268.697 C 428.863 269.824, 421.153 275.158, 420.608 276.578 C 420.036 278.069, 425.323 275.391, 432.982 270.310 C 436.171 268.195, 435.673 267.377, 432 268.697 M 609.389 270.500 C 609.643 271.600, 610.144 273.957, 610.502 275.739 C 610.861 277.520, 611.562 279.230, 612.062 279.538 C 613.315 280.312, 612.047 274.088, 610.323 271 C 609.277 269.127, 609.043 269.001, 609.389 270.500 M 228.744 275.268 C 226.680 278.418, 221 288.873, 221 289.523 C 221 289.785, 221.654 290, 222.454 290 C 223.283 290, 225.458 286.735, 227.509 282.414 C 231.120 274.804, 231.862 270.509, 228.744 275.268 M 483.646 277.388 C 481.567 279.924, 480.258 282, 480.737 282 C 482.257 282, 488.241 275.224, 487.825 273.974 C 487.605 273.315, 485.724 274.851, 483.646 277.388 M 386.015 278.485 C 382.062 282.563, 382.257 283.354, 386.750 281.464 C 389.209 280.429, 390 279.476, 390 277.548 C 390 276.147, 389.863 275, 389.696 275 C 389.529 275, 387.872 276.568, 386.015 278.485 M 232.151 284.625 C 230.283 288.471, 230.179 289.145, 231.534 288.625 C 232.430 288.281, 233.340 288, 233.556 288 C 234.472 288, 237.029 281.856, 236.482 280.971 C 235.369 279.170, 234.408 279.981, 232.151 284.625 M 210.245 293.250 C 210.779 294.871, 215 295.504, 215 293.963 C 215 293.315, 214.325 293.045, 213.500 293.362 C 212.675 293.678, 212 293.501, 212 292.969 C 212 292.436, 211.512 292, 210.917 292 C 210.321 292, 210.019 292.563, 210.245 293.250 M 290.086 300 C 290.116 300.825, 290.527 302.400, 291 303.500 L 291.859 305.500 291.914 303.500 C 291.945 302.400, 291.533 300.825, 291 300 C 290.138 298.667, 290.037 298.667, 290.086 300 M 244.796 301.091 C 244.460 301.966, 244.569 303.303, 245.038 304.062 C 246.253 306.028, 246.785 304.936, 246.041 302 C 245.555 300.082, 245.265 299.871, 244.796 301.091 M 569.362 315.299 C 565.921 319.257, 565.567 320.330, 568.293 318.544 C 570.650 316.999, 572.507 314.174, 571.698 313.364 C 571.505 313.172, 570.454 314.043, 569.362 315.299 M 550.996 322.439 C 552.642 324.229, 553.377 326.034, 553.153 327.741 C 552.803 330.415, 550.856 333, 549.194 333 C 548.672 333, 547.685 333.675, 547 334.500 C 546.215 335.446, 546.148 336, 546.819 336 C 547.403 336, 548.179 335.519, 548.542 334.932 C 548.905 334.344, 549.802 334.094, 550.536 334.375 C 551.320 334.676, 552.706 333.468, 553.901 331.444 C 555.018 329.550, 556.562 328, 557.331 328 C 558.956 328, 564.331 323.998, 563.638 323.305 C 563.381 323.048, 562.120 323.428, 560.836 324.150 C 557.400 326.080, 555 326.010, 555 323.980 C 555 323.019, 554.212 321.955, 553.250 321.616 C 552.288 321.276, 550.825 320.712, 550 320.362 C 549.175 320.012, 549.623 320.947, 550.996 322.439 M 279.989 337.705 C 279.720 341.667, 279.861 344.547, 280.302 344.103 C 280.742 343.660, 280.962 340.418, 280.790 336.898 L 280.477 330.500 279.989 337.705 M 303.106 339 C 303.059 341.031, 305.724 352.057, 306.433 352.766 C 306.745 353.078, 306.987 352.246, 306.972 350.917 C 306.941 348.248, 303.161 336.598, 303.106 339 M 534.892 340.370 C 535.636 341.266, 537.450 342, 538.922 342 C 540.395 342, 542.101 342.501, 542.713 343.113 C 543.324 343.724, 544.427 344.022, 545.163 343.774 C 546.864 343.200, 541.752 340.511, 537.020 339.490 C 533.877 338.813, 533.671 338.898, 534.892 340.370 M 544.500 340 C 547.263 341.187, 549 341.187, 549 340 C 549 339.450, 547.538 339.032, 545.750 339.070 C 543.026 339.129, 542.824 339.280, 544.500 340 M 468.258 347.226 C 466.545 349.352, 459.841 363.175, 460.301 363.634 C 460.537 363.870, 462.009 361.461, 463.573 358.282 C 465.137 355.102, 467.272 351.237, 468.317 349.692 C 470.227 346.872, 470.178 344.843, 468.258 347.226 M 307.076 355.500 C 307.084 356.600, 307.714 358.850, 308.475 360.500 L 309.861 363.500 309.293 360 C 308.581 355.614, 307.054 352.513, 307.076 355.500 M 577.625 354.798 C 577.354 355.237, 577.545 356.249, 578.051 357.048 C 578.556 357.846, 578.976 359.786, 578.985 361.357 C 578.996 363.489, 578.619 364.068, 577.500 363.638 C 576.675 363.322, 576.007 363.161, 576.015 363.281 C 576.023 363.402, 576.663 365.300, 577.436 367.500 C 578.468 370.437, 579.014 371.062, 579.489 369.853 C 579.844 368.947, 580.010 367.597, 579.858 366.853 C 579.705 366.109, 580.097 364.569, 580.728 363.431 C 582.067 361.018, 581.895 358.784, 580.215 356.759 C 579.556 355.965, 579.313 355.020, 579.675 354.658 C 580.037 354.296, 579.835 354, 579.226 354 C 578.616 354, 577.896 354.359, 577.625 354.798 M 278 367.667 C 278 373.220, 278.481 373.074, 279.373 367.250 C 279.775 364.621, 279.638 363, 279.012 363 C 278.455 363, 278 365.100, 278 367.667 M 652.168 370.949 C 651.583 372.627, 651.478 374, 651.935 374 C 652.728 374, 654.147 368.829, 653.527 368.199 C 653.364 368.033, 652.753 369.271, 652.168 370.949 M 551.258 372.228 C 553.816 374.199, 555 374.444, 555 373 C 555 372.450, 554.523 372, 553.941 372 C 553.359 372, 553.131 371.598, 553.434 371.106 C 553.738 370.615, 552.868 370.277, 551.501 370.356 L 549.015 370.500 551.258 372.228 M 581.571 378.571 C 580.512 379.346, 579.871 380.204, 580.146 380.479 C 580.421 380.754, 581.512 380.346, 582.571 379.571 C 583.630 378.797, 584.272 377.939, 583.997 377.664 C 583.722 377.389, 582.630 377.797, 581.571 378.571 M 582.451 383.373 C 583.007 386.837, 583.500 387.427, 585.040 386.475 C 585.732 386.048, 585.826 385.493, 585.271 385.125 C 584.753 384.781, 583.803 383.600, 583.159 382.500 C 582.105 380.698, 582.035 380.785, 582.451 383.373 M 570.629 385.791 C 570.360 386.226, 571.684 386.402, 573.570 386.182 C 575.457 385.961, 577 385.605, 577 385.391 C 577 384.638, 571.113 385.008, 570.629 385.791 M 576 399.333 C 576 400.250, 575.550 401, 575 401 C 573.193 401, 573.956 402.755, 575.995 403.289 C 577.720 403.740, 577.904 403.450, 577.355 401.155 C 576.572 397.887, 576 397.118, 576 399.333 M 567 403.387 C 567 404.892, 566.375 405.146, 563.500 404.810 C 558.815 404.263, 559.014 405.593, 563.750 406.478 C 565.813 406.864, 567.950 407.515, 568.500 407.927 C 569.050 408.338, 570.625 408.079, 572 407.352 C 574.401 406.082, 574.413 406.029, 572.307 406.015 C 571.100 406.007, 569.413 405, 568.557 403.777 C 567.190 401.826, 567 401.778, 567 403.387 M 531.083 403.283 C 531.313 403.439, 532.288 404.169, 533.250 404.905 C 534.748 406.052, 535 406.011, 535 404.622 C 535 403.625, 534.165 403, 532.833 403 C 531.642 403, 530.854 403.127, 531.083 403.283 M 552.550 403.888 C 554.055 405.294, 558 406.232, 558 405.184 C 558 404.661, 556.987 403.962, 555.750 403.630 C 552.487 402.756, 551.430 402.841, 552.550 403.888" stroke="none" fill="#222323" fill-rule="evenodd"/></svg>